<svg width="30" height="30" viewBox="0 0 30 30" fill="none" xmlns="http://www.w3.org/2000/svg">
<circle cx="15" cy="15" r="14.5" stroke="#CED4DA"/>
<path d="M9.80534 14.9998C9.80524 14.9238 9.82013 14.8486 9.84915 14.7784C9.87817 14.7082 9.92075 14.6444 9.97446 14.5907C10.0282 14.537 10.0919 14.4945 10.1621 14.4654C10.2323 14.4364 10.3075 14.4215 10.3835 14.4216L14.7057 14.4224L14.7049 10.1002C14.7049 10.0243 14.7199 9.94908 14.7489 9.87893C14.778 9.80879 14.8206 9.74505 14.8743 9.69137C14.9279 9.63768 14.9917 9.5951 15.0618 9.56604C15.132 9.53699 15.2072 9.52203 15.2831 9.52203C15.359 9.52203 15.4342 9.53699 15.5043 9.56604C15.5745 9.59509 15.6382 9.63768 15.6919 9.69137C15.7456 9.74505 15.7882 9.80879 15.8172 9.87893C15.8463 9.94908 15.8612 10.0243 15.8612 10.1002L15.8604 14.4224L20.1827 14.4216C20.2586 14.4216 20.3338 14.4366 20.4039 14.4656C20.4741 14.4947 20.5378 14.5373 20.5915 14.591C20.6452 14.6446 20.6878 14.7084 20.7168 14.7785C20.7459 14.8487 20.7608 14.9238 20.7608 14.9998C20.7608 15.0757 20.7459 15.1509 20.7168 15.221C20.6878 15.2912 20.6452 15.3549 20.5915 15.4086C20.5378 15.4623 20.4741 15.5049 20.4039 15.5339C20.3338 15.563 20.2586 15.5779 20.1827 15.5779L15.8604 15.5771L15.8612 19.8994C15.8612 19.9753 15.8463 20.0505 15.8172 20.1206C15.7882 20.1908 15.7456 20.2545 15.6919 20.3082C15.6382 20.3619 15.5745 20.4044 15.5043 20.4335C15.4342 20.4626 15.359 20.4775 15.2831 20.4775C15.2072 20.4775 15.132 20.4626 15.0618 20.4335C14.9917 20.4044 14.9279 20.3619 14.8743 20.3082C14.8206 20.2545 14.778 20.1908 14.7489 20.1206C14.7199 20.0505 14.7049 19.9753 14.7049 19.8994L14.7057 15.5771L10.3835 15.5779C10.3075 15.578 10.2323 15.5631 10.1621 15.5341C10.0919 15.5051 10.0282 15.4625 9.97446 15.4088C9.92075 15.3551 9.87817 15.2913 9.84915 15.2211C9.82013 15.1509 9.80524 15.0757 9.80534 14.9998Z" fill="#CED4DA"/>
</svg>
