<svg width="30" height="28" viewBox="0 0 30 28" fill="none" xmlns="http://www.w3.org/2000/svg">
<path d="M3.21414 27.8559C2.3617 27.8559 1.54417 27.5173 0.9414 26.9145C0.338632 26.3117 0 25.4942 0 24.6417V3.21414C0 2.3617 0.338632 1.54417 0.9414 0.9414C1.54417 0.338632 2.3617 0 3.21414 0H20.3562C20.6404 0 20.9129 0.112877 21.1138 0.3138C21.3147 0.514723 21.4276 0.787233 21.4276 1.07138C21.4276 1.35553 21.3147 1.62804 21.1138 1.82896C20.9129 2.02988 20.6404 2.14276 20.3562 2.14276H3.21414C2.92999 2.14276 2.65748 2.25564 2.45656 2.45656C2.25564 2.65748 2.14276 2.92999 2.14276 3.21414V24.6417C2.14276 24.9259 2.25564 25.1984 2.45656 25.3993C2.65748 25.6003 2.92999 25.7131 3.21414 25.7131H24.6417C24.9259 25.7131 25.1984 25.6003 25.3993 25.3993C25.6003 25.1984 25.7131 24.9259 25.7131 24.6417V13.9279C25.7131 13.6438 25.826 13.3713 26.0269 13.1704C26.2279 12.9694 26.5004 12.8566 26.7845 12.8566C27.0687 12.8566 27.3412 12.9694 27.5421 13.1704C27.743 13.3713 27.8559 13.6438 27.8559 13.9279V24.6417C27.8559 25.4942 27.5173 26.3117 26.9145 26.9145C26.3117 27.5173 25.4942 27.8559 24.6417 27.8559H3.21414Z" fill="#7DF196"/>
<path d="M14.6865 18.972L29.6858 3.97267C29.7854 3.87306 29.8644 3.7548 29.9184 3.62465C29.9723 3.4945 30 3.35501 30 3.21414C30 3.07326 29.9723 2.93377 29.9184 2.80362C29.8644 2.67347 29.7854 2.55521 29.6858 2.4556C29.5862 2.35599 29.4679 2.27697 29.3378 2.22306C29.2076 2.16915 29.0682 2.1414 28.9273 2.1414C28.7864 2.1414 28.6469 2.16915 28.5168 2.22306C28.3866 2.27697 28.2684 2.35599 28.1687 2.4556L13.928 16.6985L8.25821 11.0266C8.1586 10.927 8.04034 10.848 7.91019 10.7941C7.78004 10.7402 7.64055 10.7124 7.49967 10.7124C7.3588 10.7124 7.21931 10.7402 7.08916 10.7941C6.95901 10.848 6.84075 10.927 6.74114 11.0266C6.64153 11.1263 6.56251 11.2445 6.5086 11.3747C6.45469 11.5048 6.42694 11.6443 6.42694 11.7852C6.42694 11.9261 6.45469 12.0655 6.5086 12.1957C6.56251 12.3258 6.64153 12.4441 6.74114 12.5437L13.1694 18.972C13.2689 19.0718 13.3872 19.1509 13.5173 19.2049C13.6475 19.259 13.787 19.2868 13.928 19.2868C14.0689 19.2868 14.2084 19.259 14.3386 19.2049C14.4687 19.1509 14.587 19.0718 14.6865 18.972Z" fill="#7DF196"/>
</svg>
