<svg width="20" height="21" viewBox="0 0 20 21" fill="none" xmlns="http://www.w3.org/2000/svg">
<path d="M17.5 1.75C17.8315 1.75 18.1495 1.8817 18.3839 2.11612C18.6183 2.35054 18.75 2.66848 18.75 3V18C18.75 18.3315 18.6183 18.6495 18.3839 18.8839C18.1495 19.1183 17.8315 19.25 17.5 19.25H2.5C2.16848 19.25 1.85054 19.1183 1.61612 18.8839C1.3817 18.6495 1.25 18.3315 1.25 18V3C1.25 2.66848 1.3817 2.35054 1.61612 2.11612C1.85054 1.8817 2.16848 1.75 2.5 1.75H17.5ZM2.5 0.5C1.83696 0.5 1.20107 0.763392 0.732233 1.23223C0.263392 1.70107 0 2.33696 0 3L0 18C0 18.663 0.263392 19.2989 0.732233 19.7678C1.20107 20.2366 1.83696 20.5 2.5 20.5H17.5C18.163 20.5 18.7989 20.2366 19.2678 19.7678C19.7366 19.2989 20 18.663 20 18V3C20 2.33696 19.7366 1.70107 19.2678 1.23223C18.7989 0.763392 18.163 0.5 17.5 0.5L2.5 0.5Z" fill="#EB4764"/>
<path d="M5.80752 6.3075C5.86558 6.2493 5.93454 6.20312 6.01048 6.17161C6.08641 6.1401 6.16781 6.12389 6.25002 6.12389C6.33223 6.12389 6.41363 6.1401 6.48956 6.17161C6.56549 6.20312 6.63446 6.2493 6.69252 6.3075L10 9.61625L13.3075 6.3075C13.3656 6.24939 13.4346 6.2033 13.5105 6.17185C13.5865 6.1404 13.6678 6.12421 13.75 6.12421C13.8322 6.12421 13.9136 6.1404 13.9895 6.17185C14.0654 6.2033 14.1344 6.24939 14.1925 6.3075C14.2506 6.36561 14.2967 6.4346 14.3282 6.51052C14.3596 6.58645 14.3758 6.66782 14.3758 6.75C14.3758 6.83218 14.3596 6.91356 14.3282 6.98948C14.2967 7.06541 14.2506 7.13439 14.1925 7.1925L10.8838 10.5L14.1925 13.8075C14.2506 13.8656 14.2967 13.9346 14.3282 14.0105C14.3596 14.0864 14.3758 14.1678 14.3758 14.25C14.3758 14.3322 14.3596 14.4136 14.3282 14.4895C14.2967 14.5654 14.2506 14.6344 14.1925 14.6925C14.1344 14.7506 14.0654 14.7967 13.9895 14.8282C13.9136 14.8596 13.8322 14.8758 13.75 14.8758C13.6678 14.8758 13.5865 14.8596 13.5105 14.8282C13.4346 14.7967 13.3656 14.7506 13.3075 14.6925L10 11.3838L6.69252 14.6925C6.63441 14.7506 6.56542 14.7967 6.4895 14.8282C6.41357 14.8596 6.3322 14.8758 6.25002 14.8758C6.16784 14.8758 6.08646 14.8596 6.01054 14.8282C5.93461 14.7967 5.86563 14.7506 5.80752 14.6925C5.74941 14.6344 5.70331 14.5654 5.67186 14.4895C5.64042 14.4136 5.62423 14.3322 5.62423 14.25C5.62423 14.1678 5.64042 14.0864 5.67186 14.0105C5.70331 13.9346 5.74941 13.8656 5.80752 13.8075L9.11627 10.5L5.80752 7.1925C5.74931 7.13445 5.70314 7.06548 5.67163 6.98955C5.64012 6.91361 5.6239 6.83221 5.6239 6.75C5.6239 6.66779 5.64012 6.58639 5.67163 6.51046C5.70314 6.43453 5.74931 6.36556 5.80752 6.3075Z" fill="#EB4764"/>
</svg>
