<svg width="20" height="21" viewBox="0 0 20 21" fill="none" xmlns="http://www.w3.org/2000/svg">
<path d="M19.8008 2.4867C19.9284 2.61597 20 2.79105 20 2.97358C20 3.15611 19.9284 3.33119 19.8008 3.46046L18.3767 4.90042L15.646 2.14188L17.07 0.701916C17.1981 0.572629 17.3717 0.5 17.5527 0.5C17.7337 0.5 17.9074 0.572629 18.0354 0.701916L19.8008 2.48532V2.4867ZM17.4114 5.87419L14.6806 3.11564L5.37827 12.514C5.30312 12.5899 5.24655 12.6825 5.21305 12.7843L4.11392 16.1139C4.09399 16.1746 4.09116 16.2397 4.10575 16.3019C4.12034 16.3642 4.15177 16.4211 4.19654 16.4663C4.2413 16.5115 4.29764 16.5433 4.35924 16.558C4.42084 16.5728 4.48529 16.5699 4.54538 16.5498L7.84142 15.4394C7.94214 15.406 8.03376 15.3493 8.10903 15.2739L17.4114 5.87557V5.87419Z" fill="#CED4DA"/>
<path fill-rule="evenodd" clip-rule="evenodd" d="M0 18.4311C0 18.9798 0.215779 19.506 0.599868 19.894C0.983956 20.282 1.50489 20.5 2.04808 20.5H17.0673C17.6105 20.5 18.1314 20.282 18.5155 19.894C18.8996 19.506 19.1154 18.9798 19.1154 18.4311V10.1554C19.1154 9.97254 19.0434 9.79713 18.9154 9.6678C18.7874 9.53847 18.6137 9.46581 18.4327 9.46581C18.2516 9.46581 18.078 9.53847 17.9499 9.6678C17.8219 9.79713 17.75 9.97254 17.75 10.1554V18.4311C17.75 18.614 17.6781 18.7894 17.55 18.9187C17.422 19.0481 17.2484 19.1207 17.0673 19.1207H2.04808C1.86701 19.1207 1.69337 19.0481 1.56534 18.9187C1.43731 18.7894 1.36538 18.614 1.36538 18.4311V3.25908C1.36538 3.07618 1.43731 2.90077 1.56534 2.77143C1.69337 2.6421 1.86701 2.56944 2.04808 2.56944H10.9231C11.1041 2.56944 11.2778 2.49679 11.4058 2.36745C11.5338 2.23812 11.6058 2.06271 11.6058 1.87981C11.6058 1.6969 11.5338 1.52149 11.4058 1.39216C11.2778 1.26283 11.1041 1.19017 10.9231 1.19017H2.04808C1.50489 1.19017 0.983956 1.40814 0.599868 1.79614C0.215779 2.18414 0 2.71037 0 3.25908V18.4311Z" fill="#CED4DA"/>
</svg>
